#!OML:ASF F:\VICON\USERDATA\INSTALL\rory3\rory3.ASF
:FULLY-SPECIFIED
:DEGREES
182
root 2.66738 17.6024 -23.6698 -2.39734 -10.252 -3.75281
lowerback 20.1912 -0.8525 2.84406
upperback 1.9309 0.0185114 5.40034
thorax -9.22906 0.00273037 4.3023
lowerneck -6.09898 -10.085 -8.84534
upperneck 36.4304 -12.7554 -2.25333
head 13.8828 -7.07634 -1.12858
rclavicle -6.02318e-014 6.67916e-014
rhumerus -33.7715 -51.5965 -52.1701
rradius 24.9846
rwrist -14.1336
rhand -11.4519 -5.16169
rfingers 7.12502
rthumb 14.5851 -34.6289
lclavicle -6.02318e-014 6.67916e-014
lhumerus -43.0935 0.149553 81.3261
lradius 53.8673
lwrist 8.14398
lhand -9.67302 49.4171
lfingers 7.12502
lthumb 16.2985 78.7522
rfemur -5.97995 3.5728 24.8078
rtibia 32.7951
rfoot -19.7294 -8.34732
rtoes 8.1664
lfemur -22.9365 5.07656 -15.8744
ltibia 67.4698
lfoot -3.77037 -1.58755
ltoes -11.0597
183
root 2.64017 17.6066 -23.5537 -2.35482 -9.3366 -3.84278
lowerback 20.6896 -1.09575 2.91228
upperback 1.45194 -0.202768 5.55784
thorax -10.0261 -0.0924698 4.54194
lowerneck -5.54231 -10.0524 -8.93277
upperneck 36.5685 -12.7028 -2.41491
head 13.8204 -7.09552 -1.13892
rclavicle 2.5842e-015 1.59028e-014
rhumerus -35.3078 -48.4073 -52.5357
rradius 26.8894
rwrist -19.7483
rhand -13.1743 -6.04341
rfingers 7.12502
rthumb 12.9252 -35.6231
lclavicle 2.5842e-015 1.59028e-014
lhumerus -44.1487 0.867486 81.1285
lradius 53.8899
lwrist 7.7515
lhand -9.25482 49.6437
lfingers 7.12502
lthumb 16.7011 78.9452
rfemur -5.34135 3.34341 25.0575
rtibia 32.4775
rfoot -20.0152 -8.96675
rtoes 8.60662
lfemur -23.9425 4.64434 -15.7512
ltibia 67.1692
lfoot -4.26612 -1.16658
ltoes -10.8234
184
root 2.6117 17.6095 -23.4428 -2.19849 -9.08516 -3.78686
lowerback 20.8611 -1.17875 2.69683
upperback 1.0661 -0.310188 5.68916
thorax -10.5474 -0.121744 4.87186
lowerneck -4.75418 -9.91583 -9.33336
upperneck 36.5243 -12.5266 -2.37814
head 13.6697 -7.08084 -0.984379
rclavicle -1.31198e-014 1.43125e-014
rhumerus -37.2955 -47.9154 -51.461
rradius 27.5946
rwrist -22.3292
rhand -14.2451 -6.09144
rfingers 7.12502
rthumb 11.8928 -35.7337
lclavicle -1.31198e-014 1.43125e-014
lhumerus -45.2198 1.81466 80.8577
lradius 53.8713
lwrist 7.56672
lhand -9.43706 49.4389
lfingers 7.12502
lthumb 16.5257 78.7552
rfemur -4.88154 3.45741 25.0975
rtibia 32.1346
rfoot -20.2342 -9.2733
rtoes 8.73285
lfemur -24.8678 4.82998 -15.7822
ltibia 66.6577
lfoot -4.89039 -0.708049
ltoes -13.1586
185
root 2.58332 17.6151 -23.3304 -2.12601 -9.38737 -3.69454
lowerback 20.6932 -1.00362 2.43157
upperback 1.04431 -0.147593 5.72153
thorax -10.4882 -0.0316767 5.00714
lowerneck -4.25929 -9.85922 -9.45364
upperneck 36.3413 -12.492 -2.2976
head 13.4995 -7.07786 -0.887709
rclavicle -2.38542e-015 3.02153e-014
rhumerus -39.0664 -48.0795 -50.4912
rradius 28.2687
rwrist -25.0186
rhand -14.5837 -5.89522
rfingers 7.12502
rthumb 11.5662 -35.5561
lclavicle -2.38542e-015 3.02153e-014
lhumerus -45.7357 2.41168 80.6079
lradius 53.7096
lwrist 7.73498
lhand -9.66468 49.0506
lfingers 7.12502
lthumb 16.3065 78.385
rfemur -4.35908 3.8049 25.0648
rtibia 31.7682
rfoot -20.3289 -9.41988
rtoes 8.22139
lfemur -25.4901 5.48391 -15.8251
ltibia 65.8822
lfoot -5.62315 -0.201996
ltoes -14.8851
186
root 2.55831 17.6244 -23.2162 -2.00629 -9.76028 -3.72184
lowerback 20.1968 -0.68538 2.65177
upperback 1.65192 0.23096 5.54126
thorax -9.55588 0.119548 4.52189
lowerneck -5.76596 -10.1188 -8.57362
upperneck 36.5375 -12.7764 -2.56564
head 13.8071 -7.09096 -1.27256
rclavicle -1.25234e-014 -2.06736e-014
rhumerus -40.2128 -50.1447 -49.84
rradius 28.729
rwrist -26.9521
rhand -14.4521 -5.69874
rfingers 7.12502
rthumb 11.6932 -35.3524
lclavicle -1.25234e-014 -2.06736e-014
lhumerus -44.7944 2.42013 80.325
lradius 53.3337
lwrist 8.10621
lhand -9.80208 48.4094
lfingers 7.12502
lthumb 16.1742 77.7546
rfemur -3.88461 4.09676 25.114
rtibia 31.3791
rfoot -20.2788 -9.39926
rtoes 7.15944
lfemur -26.0873 6.09934 -15.7385
ltibia 64.9072
lfoot -6.33158 0.289747
ltoes -14.2137
187
root 2.54085 17.6312 -23.0995 -1.91137 -9.55064 -3.78715
lowerback 20.3926 -0.661779 2.84391
upperback 1.69955 0.31643 5.55422
thorax -9.61508 0.152576 4.40618
lowerneck -6.55684 -10.274 -8.29315
upperneck 36.8467 -12.9226 -2.77618
head 14.0775 -7.12762 -1.4894
rclavicle -2.18663e-014 4.92986e-014
rhumerus -41.8551 -51.1576 -48.6283
rradius 29.2427
rwrist -29.0838
rhand -14.8554 -5.85004
rfingers 7.12502
rthumb 11.3042 -35.5254
lclavicle -2.18663e-014 4.92986e-014
lhumerus -44.8832 2.86247 80.1756
lradius 52.9855
lwrist 8.28191
lhand -10.266 47.6859
lfingers 7.12502
lthumb 15.7275 77.0668
rfemur -3.31746 3.96503 25.2019
rtibia 30.9431
rfoot -20.2568 -9.57018
rtoes 5.91961
lfemur -26.7564 6.0905 -15.648
ltibia 63.7764
lfoot -6.84715 0.627566
ltoes -12.7863
188
root 2.52658 17.6292 -22.9712 -1.95594 -8.34191 -3.74263
lowerback 20.3212 -1.24829 2.90713
upperback 1.27703 -0.404603 5.66064
thorax -10.0066 -0.183387 4.71121
lowerneck -5.07152 -10.0248 -8.95596
upperneck 36.6309 -12.651 -2.55147
head 13.7378 -7.09662 -1.14997
rclavicle 1.94809e-014 -3.02153e-014
rhumerus -43.8422 -49.8551 -47.6873
rradius 30.1761
rwrist -31.4494
rhand -14.7072 -6.05804
rfingers 7.12502
rthumb 11.4472 -35.7255
lclavicle 1.94809e-014 -3.02153e-014
lhumerus -46.3432 3.78623 79.8985
lradius 52.7104
lwrist 8.42671
lhand -10.9069 47.7034
lfingers 7.12502
lthumb 15.1102 77.1319
rfemur -2.45464 3.39462 25.2548
rtibia 30.4567
rfoot -20.4823 -10.0773
rtoes 6.24554
lfemur -27.3542 5.20651 -15.746
ltibia 62.5084
lfoot -7.26144 0.981489
ltoes -12.6865
